# xmcd
#
# Track frame offsets: 
#        150
#        17453
#        34525
#        54768
#        72290
#        100720
#        119286
#        144498
#        164864
#
# Disc length: 2414 seconds
#
# Revision: 5
# Processed by: cddbd v1.5.2PL0 Copyright (c) Steve Scherf et al.
# Submitted via: ExactAudioCopy v1.0b4
#
DISCID=6e096c09
DTITLE=Blinddog Smokin' - More Trouble Than Worth
DYEAR=2000
DGENRE=Blues, Blues Rock
TTITLE0=Satin, Silk, or Nude
TTITLE1=Skiddadlin' 
TTITLE2=Who Shot John?
TTITLE3=Fe-Mail Affair
TTITLE4=Shake That Butt
TTITLE5=Love's Labors Lost
TTITLE6=Ugly Woman Blues
TTITLE7=Arkansas Clown
TTITLE8=Humbucker Boogie
EXTD=YEAR: 2000
EXTT0=
EXTT1=
EXTT2=
EXTT3=
EXTT4=
EXTT5=
EXTT6=
EXTT7=
EXTT8=
PLAYORDER=
